<svg xmlns="http://www.w3.org/2000/svg" width="15.092" height="15" viewBox="0 0 15.092 15">
  <g id="Facebook-f_Logo-Blue-Logo.wine" transform="translate(0)">
    <path id="Subtraction_1" data-name="Subtraction 1" d="M6.367,15h0c-.223-.035-.447-.081-.666-.136s-.433-.119-.643-.193-.416-.156-.618-.247-.4-.191-.59-.3-.378-.224-.558-.347-.356-.255-.525-.393-.332-.284-.488-.436-.307-.312-.448-.477-.279-.338-.406-.514-.249-.362-.361-.549S.845,11.027.75,10.83s-.184-.4-.263-.61S.338,9.8.278,9.584s-.112-.438-.153-.66-.073-.453-.094-.68S0,7.779,0,7.546a7.668,7.668,0,0,1,.039-.772,7.565,7.565,0,0,1,.114-.749C.2,5.782.266,5.539.339,5.3S.5,4.835.593,4.609s.2-.446.318-.66.243-.422.378-.622.281-.395.434-.581.317-.366.487-.536.35-.334.536-.487.381-.3.581-.434.41-.263.622-.378.436-.223.66-.318S5.068.412,5.3.339,5.782.2,6.025.153A7.568,7.568,0,0,1,6.774.039a7.659,7.659,0,0,1,1.543,0,7.568,7.568,0,0,1,.749.114c.243.05.486.112.723.186s.467.158.693.254.446.2.66.318.422.243.622.378.395.281.581.434.366.317.536.487.334.35.487.536.3.381.434.581.263.41.378.622.223.436.318.66.181.459.254.693.136.48.186.723a7.565,7.565,0,0,1,.114.749,7.668,7.668,0,0,1,.039.772c0,.233-.011.468-.032.7s-.052.456-.094.68-.092.443-.153.66-.13.428-.209.636-.166.411-.263.61-.2.392-.313.581-.233.372-.361.549-.264.349-.406.514-.293.325-.448.477-.32.3-.488.436-.345.27-.525.393-.368.24-.558.347-.39.208-.59.3-.409.174-.618.247-.427.138-.643.193-.443.1-.666.136V9.727h1.758l.335-2.181H8.725V6.13a1.514,1.514,0,0,1,.056-.42,1.045,1.045,0,0,1,.186-.368.925.925,0,0,1,.152-.149,1,1,0,0,1,.2-.118,1.237,1.237,0,0,1,.243-.082,1.692,1.692,0,0,1,.294-.039l.1,0h.952V3.095s-.22-.037-.535-.074C10.186,3,10,2.983,9.829,2.971c-.218-.015-.424-.023-.612-.023a2.659,2.659,0,0,0-2.85,2.936V7.546H4.451V9.727H6.367V15Z" transform="translate(0 0)" fill="#fff"/>
  </g>
</svg>
