<svg id="LinkedIn-Icon-Logo.wine" xmlns="http://www.w3.org/2000/svg" width="17.616" height="15" viewBox="0 0 17.616 15">
  <path id="Path_8" data-name="Path 8" d="M16.69,14.038a.275.275,0,0,0,.277-.292c0-.207-.124-.306-.38-.306h-.412v1.082h.155v-.472h.191l0,.006.3.466h.166l-.318-.482Zm-.179-.108h-.18v-.366h.228c.118,0,.252.019.252.174,0,.178-.136.192-.3.192m-3.865-1.248h-2.2V9.228c0-.824-.015-1.884-1.144-1.884-1.145,0-1.32.9-1.32,1.824v3.513h-2.2v-7.1H7.894V6.55h.03A2.312,2.312,0,0,1,10.006,5.4c2.229,0,2.64,1.47,2.64,3.383ZM3.3,4.608a1.28,1.28,0,1,1,1.276-1.28A1.278,1.278,0,0,1,3.3,4.608m1.1,8.073H2.2v-7.1H4.4ZM13.741,0H1.1A1.084,1.084,0,0,0,0,1.074V13.809a1.085,1.085,0,0,0,1.1,1.074H13.741a1.087,1.087,0,0,0,1.1-1.074V1.073A1.087,1.087,0,0,0,13.741,0" transform="translate(0 0)" fill="#fff"/>
  <path id="Path_9" data-name="Path 9" d="M68.906,56.411a1.128,1.128,0,1,0,.022,0h-.022m0,2.127a.989.989,0,1,1,.973-1.006v.017a.968.968,0,0,1-.947.988h-.026" transform="translate(-52.429 -43.668)" fill="#fff"/>
</svg>
