<svg xmlns="http://www.w3.org/2000/svg" width="18.457" height="15" viewBox="0 0 18.457 15">
  <path id="Twitter-Logo.wine" d="M5.8,15A10.7,10.7,0,0,0,16.579,4.226q0-.246-.011-.489a7.7,7.7,0,0,0,1.889-1.961,7.55,7.55,0,0,1-2.175.6A3.8,3.8,0,0,0,17.947.277a7.594,7.594,0,0,1-2.4.919A3.79,3.79,0,0,0,9.09,4.65,10.752,10.752,0,0,1,1.284.693,3.79,3.79,0,0,0,2.457,5.749,3.759,3.759,0,0,1,.742,5.275c0,.016,0,.031,0,.048A3.788,3.788,0,0,0,3.779,9.035a3.779,3.779,0,0,1-1.71.065,3.791,3.791,0,0,0,3.537,2.63A7.6,7.6,0,0,1,.9,13.351,7.691,7.691,0,0,1,0,13.3,10.719,10.719,0,0,0,5.8,15" fill="#fff"/>
</svg>
